# xmcd
#
# Track frame offsets:
#	150
#	18811
#	26892
#	33597
#	40890
#	47620
#	57858
#	68667
#	75690
#	83288
#	93340
#	100588
#	107045
#	113164
#	120608
#	143460
#	162064
#
# Disc length: 2464 seconds
#
# Revision: 1
# Processed by: cddbd v1.5.1PL0 Copyright (c) Steve Scherf et al.
# Submitted via: CDex 1.50Beta5
#
DISCID=c3099e11
DTITLE=Tarte - 雪語り
DYEAR=1900
DGENRE=
TTITLE0=雪の想い出
TTITLE1=霞光
TTITLE2=照光
TTITLE3=潤光
TTITLE4=羽光
TTITLE5=雪の想い出 〜instrumental〜
TTITLE6=幸せの小道
TTITLE7=迷落
TTITLE8=解れた過去
TTITLE9=舞いゆく白に
TTITLE10=揺さぶる白に
TTITLE11=痛みに触れて
TTITLE12=温もりに委ねて
TTITLE13=夢見る想い
TTITLE14=もしも願いが
TTITLE15=雪の想い出 〜Tarte〜
TTITLE16=もしも願いが 〜Tarte〜
EXTD=
EXTT0=
EXTT1=
EXTT2=
EXTT3=
EXTT4=
EXTT5=
EXTT6=
EXTT7=
EXTT8=
EXTT9=
EXTT10=
EXTT11=
EXTT12=
EXTT13=
EXTT14=
EXTT15=
EXTT16=
PLAYORDER=
